<svg width="434" height="176" viewBox="0 0 434 176" fill="none" xmlns="http://www.w3.org/2000/svg">
<path d="M0 107.579V101.414H7.16951L8.84748 85.3847V8.63094H0V2.46598H27.9153L37.9831 63.0367H40.2713L50.3391 2.46598H79.3222V8.63094H70.4748V101.414H79.3222V107.579H46.6781V101.414H58.8815V8.78506H55.5256L44.3899 74.9043H29.5933L18.6102 8.63094H15.1017V85.3847L19.0678 101.414H31.2713V107.579H0Z" fill="black"/>
<path d="M127.843 109.736C104.809 109.736 92.1477 88.7754 92.1477 55.3305C92.1477 21.2691 105.724 0 128.453 0C151.487 0 164.148 20.9609 164.148 54.4058C164.148 88.4672 150.724 109.736 127.843 109.736ZM128.148 104.188C140.809 104.188 149.504 91.0873 149.504 54.714C149.504 18.1866 140.504 5.54846 128.148 5.54846C115.639 5.54846 106.792 18.649 106.792 55.0223C106.792 91.7038 115.639 104.188 128.148 104.188Z" fill="black"/>
<path d="M241.652 109.12C228.685 109.12 226.55 100.797 224.872 82.3022C223.041 62.7285 220.143 56.1011 207.482 56.1011H200.465V101.414H211.601V107.579H176.973V101.414H187.499V8.63094H176.973V2.46598H198.329L216.024 1.84948C236.618 1.23299 248.974 12.1758 248.974 27.2799C248.974 42.23 237.075 53.1728 218.77 53.1728V54.4058C230.363 56.2553 234.94 63.1908 237.38 81.2233C239.363 97.0981 240.431 102.338 245.465 102.338C249.126 102.338 250.652 99.41 250.194 93.3991L248.516 68.431H257.211L255.38 93.8615C254.465 105.113 250.346 109.12 241.652 109.12ZM200.465 49.6279H211.601C226.55 49.6279 235.092 41.3052 235.092 28.5129C235.092 17.5701 229.601 7.86032 212.516 7.86032H200.465V49.6279Z" fill="black"/>
<path d="M273.545 8.63094V2.46598H336.698V8.63094H311.375V101.414H336.698V107.579H273.545V101.414H298.409V8.63094H273.545Z" fill="black"/>
<path d="M353.947 107.579V101.414H361.116L362.794 85.3847V8.63094H353.947V2.46598H381.862L391.93 63.0367H394.218L404.286 2.46598H433.269V8.63094H424.422V101.414H433.269V107.579H400.625V101.414H412.828V8.78506H409.472L398.337 74.9043H383.54L372.557 8.63094H369.049V85.3847L373.015 101.414H385.218V107.579H353.947Z" fill="black"/>
<path d="M25.7244 159.616V151.64H13.0826V171.054H21.1342V174.064H0.365479V171.054H6.61116V125.754H0.365479V122.744H33.0989L32.8731 119.734H37.0871L38.6673 139.224H34.3781L33.4751 127.786L27.1542 125.754H13.0826V148.705H21.059L25.7244 146.975V140.729H29.7879V159.616H25.7244Z" fill="black"/>
<path d="M63.4301 175.118C52.0675 175.118 45.8218 164.884 45.8218 148.555C45.8218 131.925 52.519 121.54 63.7311 121.54C75.0938 121.54 81.3394 131.774 81.3394 148.103C81.3394 164.733 74.7175 175.118 63.4301 175.118ZM63.5806 172.409C69.8263 172.409 74.1155 166.013 74.1155 148.254C74.1155 130.42 69.6758 124.249 63.5806 124.249C57.4102 124.249 53.0458 130.646 53.0458 148.404C53.0458 166.314 57.4102 172.409 63.5806 172.409Z" fill="black"/>
<path d="M107.231 175.193C97.8249 175.193 92.4069 169.85 92.4069 161.121V125.754H87.6662V122.744H105.35V125.754H98.8031V159.391C98.8031 166.916 102.189 170.979 108.962 170.979C116.186 170.979 119.045 166.464 119.045 159.541V133.43L117.239 125.754H111.294V122.744H126.946V125.754H123.41L122.13 133.43V159.692C122.13 168.947 117.314 175.193 107.231 175.193Z" fill="black"/>
<path d="M160.062 174.064L139.067 136.44V163.379L140.948 171.054H146.818V174.064H131.166V171.054H134.628L136.057 163.379V131.022L132.144 124.024V122.744H138.39L162.696 166.314V133.43L160.89 125.754H154.945V122.744H170.597V125.754H167.135L165.781 133.43V174.064H160.062Z" fill="black"/>
<path d="M174.967 174.064V171.054H180.535V125.754H174.967V122.744H183.621L191.146 122.519C205.067 122.142 212.291 132.301 212.291 147.727C212.291 164.357 204.389 174.064 192.049 174.064H174.967ZM186.932 171.054H191.898C199.799 171.054 205.217 165.486 205.217 149.157C205.217 132.828 200.401 125.529 190.318 125.529H186.932V171.054Z" fill="black"/>
<path d="M217.413 174.064V171.054H221.778L234.57 122.744H241.719L254.436 171.054H258.951V174.064H240.665V171.054H247.965L243.525 154.048H229.604L226.97 164.131L227.497 171.054H233.667V174.064H217.413ZM230.431 150.812H242.697L236.978 129.065H236.15L230.431 150.812Z" fill="black"/>
<path d="M261.365 138.246V119.734H265.428V122.744H298.237V119.734H302.3V138.246H298.237V127.41L292.969 125.604H286.046V171.054H293.722V174.064H272.05V171.054H279.65V125.604H270.62L265.428 127.41V138.246H261.365Z" fill="black"/>
<path d="M309.906 125.754V122.744H341.059V125.754H328.568V171.054H341.059V174.064H309.906V171.054H322.172V125.754H309.906Z" fill="black"/>
<path d="M368.983 175.118C357.62 175.118 351.374 164.884 351.374 148.555C351.374 131.925 358.072 121.54 369.284 121.54C380.646 121.54 386.892 131.774 386.892 148.103C386.892 164.733 380.27 175.118 368.983 175.118ZM369.133 172.409C375.379 172.409 379.668 166.013 379.668 148.254C379.668 130.42 375.228 124.249 369.133 124.249C362.963 124.249 358.598 130.646 358.598 148.404C358.598 166.314 362.963 172.409 369.133 172.409Z" fill="black"/>
<path d="M421.964 174.064L400.97 136.44V163.379L402.851 171.054H408.72V174.064H393.068V171.054H396.53L397.96 163.379V131.022L394.047 124.024V122.744H400.292L424.598 166.314V133.43L422.792 125.754H416.847V122.744H432.499V125.754H429.037L427.683 133.43V174.064H421.964Z" fill="black"/>
</svg>
